<svg width="1618" height="614" viewBox="0 0 1618 614" fill="none" xmlns="http://www.w3.org/2000/svg">
<g filter="url(#filter0_d_1_23)">
<path d="M4.50006 30C4.50006 13.4314 17.9315 0 34.5001 0H1583.53C1600.1 0 1613.53 13.4315 1613.53 30V418.302C1613.53 521.856 1529.58 605.802 1426.03 605.802H34.5C17.9315 605.802 4.50006 592.371 4.50006 575.802V30Z" fill="url(#paint0_linear_1_23)"/>
<path d="M5.00006 30C5.00006 13.7076 18.2077 0.5 34.5001 0.5H1583.53C1599.82 0.5 1613.03 13.7076 1613.03 30V418.302C1613.03 521.579 1529.31 605.302 1426.03 605.302H34.5C18.2076 605.302 5.00006 592.095 5.00006 575.802V30Z" stroke="black"/>
</g>
<defs>
<filter id="filter0_d_1_23" x="0.500061" y="0" width="1617.03" height="613.802" filterUnits="userSpaceOnUse" color-interpolation-filters="sRGB">
<feFlood flood-opacity="0" result="BackgroundImageFix"/>
<feColorMatrix in="SourceAlpha" type="matrix" values="0 0 0 0 0 0 0 0 0 0 0 0 0 0 0 0 0 0 127 0" result="hardAlpha"/>
<feOffset dy="4"/>
<feGaussianBlur stdDeviation="2"/>
<feComposite in2="hardAlpha" operator="out"/>
<feColorMatrix type="matrix" values="0 0 0 0 0 0 0 0 0 0 0 0 0 0 0 0 0 0 0.25 0"/>
<feBlend mode="normal" in2="BackgroundImageFix" result="effect1_dropShadow_1_23"/>
<feBlend mode="normal" in="SourceGraphic" in2="effect1_dropShadow_1_23" result="shape"/>
</filter>
<linearGradient id="paint0_linear_1_23" x1="-43.9698" y1="-671.675" x2="516.726" y2="876.126" gradientUnits="userSpaceOnUse">
<stop offset="0.37719" stop-color="#67457C"/>
<stop offset="1" stop-color="#59A3F9"/>
<stop offset="1" stop-color="#59A3F9"/>
</linearGradient>
</defs>
</svg>
